@startuml
title High-Level Class Call Graph
skinparam linetype ortho
class Ammo
class AmmoItem
class CamerFollow
class CamerPOV
class CameraMovement
class ComponentCache
class EnemyAttack
class EnemyHealth
class EnemyManager
class EnemyMovement
class EnemyProjectile
class EnemyRegen
class EnemyShooting
class FirstPersonMovement
class GameEvents
class GameOverManager
class GameStarter
class GameStateManager
class HealthPotion
class HighScores
class IceBullet
class Index3Scene
class Inventory
class ItemManager
class KeybindText
class Keybinds
class MiniClown
class MusicManager
class MuteButton
class Pause
class Pistol
class PlayerHealth
class PlayerHealthProxy
class PlayerHealthRefactored
class PlayerInputManager
class PlayerMovement
class PlayerMovementRefactored
class PlayerShooting
class ProjectileWeapon
class RaycastWeapon
class RequestPacket
class Result
class ResultStandalone
class ResultsButton
class Rocket
class RocketLauncher
class SFXManager
class Scene
class ScoreDebugger
class ScoreManager
class ScoreManagerDebugger
class ScoreTextBinder
class SelfDestruct
class Singleton
class SpawnClown
class Tornado
class TornadoLaunch
class WeaponData
class WeaponManager
class ZombieCountBinder
class flashlight
class range
class reloadCheck
class vectorTest
class zombieCount
ScoreTextBinder --> ScoreManager
Result --> ScoreManager : 7
ZombieCountBinder --> EnemyManager
ResultStandalone --> ScoreManager : 5
GameStateManager --> GameEvents : 3
EnemyManager --> GameEvents : 6
ScoreManager --> GameEvents : 4
RaycastWeapon --> GameEvents
WeaponData --> GameEvents
WeaponManager --> GameStateManager : 2
EnemyHealth --> GameEvents : 3
EnemyHealth --> TornadoLaunch
ScoreDebugger --> ScoreManager : 3
ScoreManagerDebugger --> ScoreManager : 2
PlayerHealthRefactored --> GameEvents : 6
PlayerHealth --> GameEvents : 3
@enduml