@startuml
title Game Event Flow
skinparam linetype ortho
class OnAmmoPickup << (E,#FFCC00) Event >>
class OnEnemyCountChanged << (E,#FFCC00) Event >>
class OnEnemyDestroyed << (E,#FFCC00) Event >>
class OnEnemySpawned << (E,#FFCC00) Event >>
class OnGameOver << (E,#FFCC00) Event >>
class OnGamePaused << (E,#FFCC00) Event >>
class OnGameResumed << (E,#FFCC00) Event >>
class OnGameStarted << (E,#FFCC00) Event >>
class OnHealthPickup << (E,#FFCC00) Event >>
class OnHighScoreChanged << (E,#FFCC00) Event >>
class OnLevelComplete << (E,#FFCC00) Event >>
class OnPlayerDeath << (E,#FFCC00) Event >>
class OnPlayerHealthChanged << (E,#FFCC00) Event >>
class OnPlayerRevive << (E,#FFCC00) Event >>
class OnPlayerStaminaChanged << (E,#FFCC00) Event >>
class OnScoreChanged << (E,#FFCC00) Event >>
OnGamePaused --> WeaponManager : notifies
OnGamePaused --> PlayerHealthRefactored : notifies
OnGamePaused --> GameStateManager : notifies
OnGamePaused --> EnemyManager : notifies
OnGamePaused --> MusicManager : notifies
OnGameResumed --> PlayerHealthRefactored : notifies
OnGameResumed --> GameStateManager : notifies
OnGameResumed --> EnemyManager : notifies
OnGameResumed --> MusicManager : notifies
OnScoreChanged --> ScoreTextBinder : notifies
OnEnemyCountChanged --> ZombieCountBinder : notifies
OnPlayerDeath --> WeaponManager : notifies
OnPlayerDeath --> GameStateManager : notifies
OnPlayerDeath --> EnemyManager : notifies
OnPlayerDeath --> GameOverManager : notifies
OnEnemySpawned --> EnemyManager : notifies
OnEnemyDestroyed --> EnemyManager : notifies
OnGameStarted --> EnemyManager : notifies
OnPlayerRevive --> EnemyManager : notifies
OnGameOver --> ScoreManager : notifies
OnGameOver --> GameOverManager : notifies
OnEnemyKilled --> ScoreManager : notifies
@enduml